<?xml version="1.0" encoding="utf-8"?>
<!-- Generator: Adobe Illustrator 25.4.1, SVG Export Plug-In . SVG Version: 6.00 Build 0)  -->
<svg version="1.1" id="Capa_1" xmlns="http://www.w3.org/2000/svg" xmlns:xlink="http://www.w3.org/1999/xlink" x="0px" y="0px"
	 viewBox="0 0 48 48" style="enable-background:new 0 0 48 48;" xml:space="preserve">
<style type="text/css">
	.st0{fill:#1C2B3B;}
</style>
<path class="st0" d="M24,11.3c-1,0-1.9-0.4-2.6-1.1c-0.7-0.7-1.1-1.6-1.1-2.6s0.4-1.9,1.1-2.6C22.1,4.4,23,4,24,4s1.9,0.4,2.6,1.1
	c0.7,0.7,1.1,1.6,1.1,2.6s-0.4,1.9-1.1,2.6C25.9,10.9,25,11.3,24,11.3z M18.6,44V17.4c-2.3-0.2-4.5-0.4-6.6-0.7S7.9,16,6,15.5l0.8-3
	c2.8,0.7,5.7,1.1,8.4,1.4c2.8,0.3,5.7,0.4,8.8,0.4c3.1,0,6-0.1,8.8-0.4c2.8-0.3,5.6-0.8,8.5-1.4l0.8,3c-1.9,0.5-4,0.9-6.1,1.1
	c-2.1,0.3-4.3,0.5-6.6,0.7V44h-3V31h-4.7v13H18.6z"/>
</svg>
