<svg width="34" height="26" viewBox="0 0 34 26" fill="none" xmlns="http://www.w3.org/2000/svg">
<path d="M6.39155 2.91387C4.81577 2.9394 1.9086 3.71717 0.580202 9.14956C0.00146604 11.5159 -0.221932 13.9844 0.272842 16.9198C0.730134 19.6285 1.53826 21.9663 2.08402 23.2546C2.27143 23.699 2.5638 24.1615 2.78869 24.4467C3.4349 25.2666 4.51291 25.214 4.9657 24.9903C5.45898 24.747 6.02572 24.16 5.82181 22.8176C5.72286 22.169 5.43649 21.2215 5.27606 20.6945C4.78129 19.0774 4.12309 17.127 4.06611 15.7366C3.98965 13.8778 4.72131 13.6345 5.20709 13.5264C6.02422 13.3462 6.70941 14.2456 7.36011 15.3717C8.13676 16.7156 9.46965 19.0984 10.5552 20.9182C11.5357 22.5609 13.3454 24.3191 16.2511 24.199C19.2137 24.0759 21.3982 22.9437 22.5227 19.3792C23.3638 16.7126 23.938 14.7201 24.8616 12.6796C25.9231 10.3327 27.34 9.07749 28.5334 9.46037C29.6414 9.81622 29.9173 10.9003 29.9308 12.4934C29.9428 13.9033 29.7794 15.4573 29.6534 16.5984C29.607 17.0129 29.5245 17.8462 29.559 18.3086C29.6264 19.2185 30.0193 20.127 31.0418 20.2711C32.1318 20.4257 33.0059 19.5549 33.3553 18.5008C33.4932 18.0849 33.6101 17.4498 33.6731 16.9993C33.994 14.7216 34.0764 13.1901 33.9325 10.8598C33.7631 8.13455 33.2308 5.64959 32.3012 3.49945C31.4121 1.44241 29.9848 0.124105 28.1541 0.00849048C26.127 -0.120638 23.8016 1.2262 22.5812 3.83879C21.4567 6.24718 20.5571 8.71863 20.0113 9.98139C19.4581 11.2607 18.644 12.0489 17.3935 12.1811C15.8642 12.3417 14.5463 11.2306 13.5808 9.64505C12.7397 8.26368 11.0724 5.63307 10.1803 4.74869C9.34221 3.92137 8.38564 2.88234 6.39155 2.91387Z" fill="#019DF4"/>
</svg>
