<svg width="36" height="33" viewBox="0 0 36 33" fill="none" xmlns="http://www.w3.org/2000/svg">
<path d="M31.216 21.0616C30.709 21.0616 30.2021 20.8158 29.7105 20.3242C29.3059 19.9197 28.5327 19.0235 27.2576 17.5436L26.6073 16.7909C26.423 16.5758 26.4486 16.2532 26.6585 16.0689C26.8736 15.8845 27.1962 15.9101 27.3805 16.1201L28.0309 16.878C29.2496 18.2913 30.0536 19.2284 30.4274 19.6022C31.0162 20.1911 31.4208 20.1859 32.025 19.5817C32.4654 19.1413 33.0185 18.491 33.5561 17.8611C34.0989 17.221 34.6622 16.5605 35.1282 16.0945C35.3279 15.8948 35.6505 15.8948 35.8502 16.0945C36.0499 16.2942 36.0499 16.6168 35.8502 16.8165C35.415 17.2518 34.867 17.897 34.3345 18.5217C33.7866 19.1669 33.2182 19.8326 32.7471 20.3037C32.2503 20.8107 31.7331 21.0616 31.216 21.0616Z" fill="#019DF4"/>
<path d="M16.0228 32.1684C10.902 32.1684 6.93347 30.8422 4.22972 28.2255C1.42356 25.5115 0 21.4251 0 16.0842C0 10.7433 1.42356 6.65695 4.22972 3.94296C6.93347 1.32627 10.902 0 16.0228 0C21.1435 0 25.1121 1.32627 27.8158 3.94296C30.622 6.65695 32.0455 10.7433 32.0455 16.0842C32.0455 16.3659 31.8151 16.5963 31.5334 16.5963C31.2518 16.5963 31.0214 16.3659 31.0214 16.0842C31.0214 11.0301 29.7053 7.19462 27.104 4.68035C24.6 2.25312 20.867 1.02415 16.0228 1.02415C11.1785 1.02415 7.44554 2.25312 4.9415 4.68035C2.34017 7.1895 1.02415 11.0301 1.02415 16.0842C1.02415 21.1384 2.34017 24.9738 4.9415 27.4881C7.45066 29.9153 11.1785 31.1443 16.0228 31.1443C18.9825 31.1443 21.548 30.6834 23.6475 29.7719C23.9087 29.6593 24.2108 29.777 24.3235 30.0382C24.4361 30.2994 24.3183 30.6015 24.0572 30.7141C21.8297 31.6768 19.1259 32.1684 16.0228 32.1684Z" fill="#019DF4"/>
<path d="M31.1597 20.9694C30.878 20.9694 30.6476 20.739 30.6476 20.4573C30.6476 20.4266 30.6527 20.3959 30.6579 20.3652C30.8985 19.0594 31.0214 17.6205 31.0214 16.0842C31.0214 15.8026 31.2519 15.5722 31.5335 15.5722C31.8151 15.5722 32.0456 15.8026 32.0456 16.0842C32.0456 17.6819 31.9175 19.1874 31.6615 20.5546C31.6205 20.7953 31.4055 20.9694 31.1597 20.9694ZM19.8019 6.09882C20.9797 6.09882 21.5276 6.77988 21.5276 7.82963V23.371C21.5276 24.4208 20.9797 25.1018 19.8019 25.1018H11.2247C10.0469 25.1018 9.499 24.4208 9.499 23.371V10.134L13.4727 6.09882H19.8019ZM19.8019 5.07468H13.4778C13.2013 5.07468 12.9401 5.18733 12.7455 5.38192L8.77186 9.41705C8.58239 9.60652 8.47997 9.86768 8.47485 10.134V23.3659C8.47485 24.1648 8.71553 24.8407 9.17639 25.3272C9.51948 25.6907 10.1493 26.1209 11.2247 26.1209H19.8019C20.8773 26.1209 21.5122 25.6907 21.8502 25.3272C22.3059 24.8407 22.5517 24.1648 22.5517 23.3659V7.82451C22.5517 7.02567 22.3111 6.34974 21.8502 5.86327C21.5071 5.50482 20.8773 5.07468 19.8019 5.07468Z" fill="#019DF4"/>
<path d="M19.474 23.0996H11.4857C11.2041 23.0996 10.9736 22.8692 10.9736 22.5875V13.5495C10.9736 13.2678 11.2041 13.0374 11.4857 13.0374H19.474C19.7557 13.0374 19.9861 13.2678 19.9861 13.5495V22.5875C19.9861 22.8692 19.7557 23.0996 19.474 23.0996ZM11.9978 22.0755H18.962V14.0615H11.9978V22.0755Z" fill="#019DF4"/>
<path d="M14.1383 17.1033C13.8567 17.1033 13.6262 16.8728 13.6262 16.5912V13.7031C13.6262 13.4215 13.8567 13.191 14.1383 13.191C14.4199 13.191 14.6504 13.4215 14.6504 13.7031V16.5912C14.6504 16.8728 14.4199 17.1033 14.1383 17.1033ZM16.8011 17.1033C16.5194 17.1033 16.289 16.8728 16.289 16.5912V13.7031C16.289 13.4215 16.5194 13.191 16.8011 13.191C17.0827 13.191 17.3131 13.4215 17.3131 13.7031V16.5912C17.3131 16.8728 17.0827 17.1033 16.8011 17.1033ZM14.1383 23.0484C13.8567 23.0484 13.6262 22.818 13.6262 22.5364V19.5971C13.6262 19.3154 13.8567 19.085 14.1383 19.085C14.4199 19.085 14.6504 19.3154 14.6504 19.5971V22.5364C14.6504 22.818 14.4199 23.0484 14.1383 23.0484ZM16.8011 23.0484C16.5194 23.0484 16.289 22.818 16.289 22.5364V19.5971C16.289 19.3154 16.5194 19.085 16.8011 19.085C17.0827 19.085 17.3131 19.3154 17.3131 19.5971V22.5364C17.3131 22.818 17.0827 23.0484 16.8011 23.0484Z" fill="#019DF4"/>
<path d="M19.474 17.1032H11.4857C11.2041 17.1032 10.9736 16.8728 10.9736 16.5911C10.9736 16.3095 11.2041 16.0791 11.4857 16.0791H19.474C19.7557 16.0791 19.9861 16.3095 19.9861 16.5911C19.9861 16.8728 19.7557 17.1032 19.474 17.1032ZM19.474 20.1091H11.4857C11.2041 20.1091 10.9736 19.8787 10.9736 19.597C10.9736 19.3154 11.2041 19.0849 11.4857 19.0849H19.474C19.7557 19.0849 19.9861 19.3154 19.9861 19.597C19.9861 19.8787 19.7557 20.1091 19.474 20.1091Z" fill="#019DF4"/>
</svg>
