<svg version="1.2" xmlns="http://www.w3.org/2000/svg" viewBox="0 0 16 15" width="16" height="15"><style>.a{fill:#589cf1}.b{fill:#fff}</style><path class="a" d="m12.5 15h-9.7c-1.4 0-2.6-1.2-2.6-2.6v-9.7c0-1.5 1.2-2.6 2.6-2.6h9.7c1.4 0 2.6 1.1 2.6 2.6v9.7c0 1.4-1.2 2.6-2.6 2.6z"/><path class="b" d="m5.5 5.1c0.3 0.2 0.8 1.1 1.1 1.5 0.3 0.5 0.7 0.9 1.2 0.8 0.4 0 0.6-0.3 0.8-0.7 0.2-0.4 0.5-1.2 0.8-1.9 0.4-0.9 1.2-1.3 1.8-1.2 0.6 0 1 0.4 1.3 1.1q0.5 1 0.5 2.3c0.1 0.7 0.1 1.2 0 2-0.1 0.1-0.1 0.3-0.1 0.4-0.2 0.4-0.4 0.6-0.8 0.6-0.3-0.1-0.4-0.3-0.4-0.6-0.1-0.2 0-0.4 0-0.6 0-0.3 0.1-0.8 0.1-1.3 0-0.5-0.1-0.8-0.5-0.9-0.4-0.2-0.8 0.2-1.1 1-0.3 0.6-0.5 1.3-0.8 2.1-0.3 1.1-1 1.5-2 1.5-0.9 0.1-1.5-0.5-1.8-1-0.3-0.6-0.8-1.3-1-1.8-0.2-0.3-0.4-0.6-0.7-0.5-0.2 0-0.4 0.1-0.4 0.7 0.1 0.4 0.3 1 0.4 1.5 0.1 0.2 0.2 0.5 0.2 0.7 0.1 0.4-0.1 0.6-0.3 0.7-0.1 0.1-0.5 0.1-0.7-0.2 0-0.1-0.1-0.2-0.2-0.4-0.2-0.4-0.4-1.1-0.6-2-0.1-0.9-0.1-1.7 0.1-2.4 0.4-1.8 1.4-2 1.9-2 0.6 0 0.9 0.3 1.2 0.6z"/></svg>