<svg xmlns="http://www.w3.org/2000/svg" viewBox="0 0 45.73 33.75"><defs><style>.cls-1{fill:#fff;}</style></defs><g id="Capa_2" data-name="Capa 2"><g id="Capa_1-2" data-name="Capa 1"><path class="cls-1" d="M8.6,3.91c-2.12,0-6,1.08-7.82,8.38A24.77,24.77,0,0,0,.37,22.72,40,40,0,0,0,2.8,31.23a7.86,7.86,0,0,0,1,1.6,2.55,2.55,0,0,0,2.93.73c.66-.32,1.43-1.11,1.15-2.91a24.8,24.8,0,0,0-.73-2.86,31.26,31.26,0,0,1-1.63-6.66c-.1-2.49.88-2.82,1.53-3,1.1-.25,2,1,2.9,2.48,1,1.8,2.84,5,4.3,7.45a8.37,8.37,0,0,0,7.66,4.4c4-.16,6.92-1.68,8.44-6.47a79.37,79.37,0,0,1,3.14-9c1.43-3.15,3.34-4.84,4.94-4.32s1.86,1.93,1.88,4.07a47.69,47.69,0,0,1-.37,5.52,15.43,15.43,0,0,0-.13,2.29c.09,1.22.62,2.44,2,2.64a3.05,3.05,0,0,0,3.12-2.38,13.15,13.15,0,0,0,.42-2,36,36,0,0,0,.35-8.24A29.6,29.6,0,0,0,43.45,4.7C42.25,1.94,40.33.17,37.87,0,35.14-.16,32,1.65,30.37,5.16c-1.51,3.23-2.72,6.55-3.45,8.25a4.28,4.28,0,0,1-3.52,2.95c-2.06.22-3.83-1.28-5.13-3.4a48.64,48.64,0,0,0-4.58-6.58C12.57,5.26,11.28,3.87,8.6,3.91Z"/></g></g></svg>