<svg version="1.2" xmlns="http://www.w3.org/2000/svg" viewBox="0 0 932 114" width="932" height="114"><style>.a{fill:#fff}</style><circle class="a" cx="477.4" cy="17.7" r="16.9"/><circle class="a" cx="517" cy="17.7" r="16.9"/><circle class="a" cx="556.6" cy="17.7" r="16.9"/><circle class="a" cx="517" cy="57.3" r="16.9"/><circle class="a" cx="517" cy="96.9" r="16.9"/><path class="a" d="m609.5 44.2h-15.8v-9.4h41.2v9.4h-15.7v43h-9.7z"/><path fill-rule="evenodd" class="a" d="m667.7 76c-0.8 3-5.5 11.9-17.5 11.9-11.3 0-19.5-8.2-19.5-19.8 0-11.6 8.2-19.8 19.5-19.8 10.4 0 18.7 8.2 18.7 19.1 0 1.1-0.2 2-0.3 2.6l-0.1 1.1h-28.4c0.8 5.3 4.7 9 10.1 9 4.4 0 7.1-2.6 7.8-4.1zm-8.2-11.3c-0.8-4.8-4.1-8.6-9.4-8.6-5.7 0-9 3.8-10.1 8.6z"/><path class="a" d="m674.5 34.8h9.3v52.4h-9.3z"/><path fill-rule="evenodd" class="a" d="m726.5 76c-0.8 3-5.6 11.9-17.6 11.9-11.2 0-19.5-8.2-19.5-19.8 0-11.6 8.3-19.8 19.5-19.8 10.5 0 18.7 8.2 18.7 19.1 0 1.1-0.1 2-0.2 2.6l-0.2 1.1h-28.4c0.8 5.3 4.8 9 10.1 9 4.4 0 7.1-2.6 7.9-4.1zm-8.3-11.3c-0.8-4.8-4-8.6-9.3-8.6-5.7 0-9 3.8-10.1 8.6z"/><path class="a" d="m736.2 58h-6.4v-9h6.4v-5.6c0-5.7 3.7-9.3 9.4-9.3h8.2v8.2h-5.6c-1.5 0-2.6 1.1-2.6 2.6v4.1h8.2v9h-8.2v29.2h-9.4z"/><path fill-rule="evenodd" class="a" d="m794.1 68.1c0 11.6-8.2 19.8-19.4 19.8-11.3 0-19.5-8.2-19.5-19.8 0-11.6 8.2-19.8 19.5-19.8 11.2 0 19.4 8.2 19.4 19.8zm-9.3 0c0-6.7-4.5-11.2-10.1-11.2-5.7 0-10.2 4.5-10.2 11.2 0 6.7 4.5 11.2 10.2 11.2 5.6 0 10.1-4.5 10.1-11.2z"/><path class="a" d="m799.7 49h8.6l0.8 3.8h0.3c0.7-0.9 1.6-1.6 2.6-2.3 1.7-1.1 4.3-2.2 7.9-2.2 8.6 0 15 6.3 15 16.1v22.8h-9.4v-22.1c0-4.9-3.3-8.2-8.2-8.2-4.9 0-8.2 3.3-8.2 8.2v22.1h-9.4z"/><path class="a" d="m894.4 73c-1.2 6-5.9 14.9-17.9 14.9-11.3 0-19.5-8.2-19.5-19.8 0-11.6 8.2-19.8 19.5-19.8 12 0 16.7 9 17.9 14.6h-9.3c-0.8-2.2-3-6-8.6-6-5.6 0-10.1 4.5-10.1 11.2 0 6.7 4.5 11.2 10.1 11.2 5.6 0 7.8-3.7 8.6-6.3z"/><path fill-rule="evenodd" class="a" d="m922.7 83.4h-0.4c-0.6 0.9-1.5 1.6-2.6 2.3-1.8 1.1-4.4 2.2-8.2 2.2-8.7 0-13.9-5.3-13.9-11.6 0-7.4 5.3-12.7 15.8-12.7h8.6v-0.7c0-4.2-2.6-7.1-6.8-7.1-4.2 0-6.3 2.6-6.7 4.8h-9.4c0.9-6.3 6-12.3 16.1-12.3 9.8 0 16.1 6.4 16.1 14.6v24.3h-7.8zm-0.8-12.7h-7.8c-4.9 0-7.2 1.8-7.2 4.8 0 3 2.2 4.9 6 4.9 5.7 0 9-3.3 9-8.6z"/><path class="a" d="m842 49h9.4v38.2h-9.4z"/><circle class="a" cx="846.7" cy="38" r="5.5"/><path class="a" d="m778 32.9h9.7l-8.9 10.9h-7.9z"/><path class="a" d="m0.2 34.8h6v31.8c0 9.3 6.4 15.7 14.6 15.7 8.1 0 14.6-6.4 14.6-15.7v-31.8h5.9v31.8c0 12.8-8.9 21.3-20.5 21.3-11.7 0-20.6-8.5-20.6-21.3z"/><path class="a" d="m50.7 49.8h4.8l0.8 4.1h0.4c0.7-0.9 1.6-1.7 2.7-2.4 1.9-1.2 4.7-2.5 8.5-2.5 8.6 0 14.9 6.4 14.9 15.7v22.4h-5.6v-22.4c0-6-4.5-10.4-10.1-10.4-5.9 0-10.8 4.8-10.8 10.4v22.4h-5.6z"/><path fill-rule="evenodd" class="a" d="m115.7 82.7h-0.3c-0.7 0.9-1.6 1.8-2.7 2.6-1.9 1.4-4.7 2.6-8.9 2.6-7.9 0-13.1-4.8-13.1-11.6 0-7.2 4.5-12 14.9-12h10.1v-1.1c0-5.7-3.3-8.9-8.9-8.9-5.7 0-9 2.9-9.4 6.3h-5.6c0.4-6 5.6-11.6 15-11.6 9 0 14.5 5.2 14.5 14.2v23.9h-4.8zm0-13h-10.1c-6.8 0-9.4 3-9.4 6.7 0 3.8 2.7 6.3 7.5 6.3 7.5 0 12-4.4 12-11.5z"/><path class="a" d="m146.8 49.8h4.8l0.8 4.1h0.3c0.8-0.9 1.7-1.7 2.7-2.4 1.7-1.2 4.1-2.5 7.1-2.5 3.8 0 6.6 1.7 8.3 3.2q1.5 1.4 2.5 3.2h0.4c0.8-1.2 1.8-2.3 3-3.2 2.1-1.5 5.1-3.2 9.3-3.2 7.8 0 13.5 6 13.5 14.6v23.5h-5.6v-23.5c0-5.7-3.3-9.3-8.6-9.3-4.9 0-9.4 4.1-9.4 9.3v23.5h-5.6v-23.5c0-5.7-3.3-9.3-8.6-9.3-4.9 0-9.3 4.1-9.3 9.3v23.5h-5.6z"/><path fill-rule="evenodd" class="a" d="m232.4 82.7h-0.4c-0.7 0.9-1.6 1.8-2.7 2.6-1.9 1.4-4.7 2.6-8.9 2.6-7.9 0-13.1-4.8-13.1-11.6 0-7.2 4.5-12 15-12h10.1v-1.1c0-5.7-3.3-8.9-9-8.9-5.7 0-9 2.9-9.4 6.3h-5.6c0.4-6 5.6-11.6 15-11.6 9 0 14.6 5.2 14.6 14.2v23.9h-4.9zm0-13h-10.1c-6.8 0-9.3 3-9.3 6.7 0 3.8 2.6 6.3 7.4 6.3 7.5 0 12-4.4 12-11.5z"/><path class="a" d="m247.3 49.8h4.9l0.7 3.7h0.4c1.5-2.2 3-3.7 7.1-3.7h6.3v5.2h-5.6c-5.3 0-8.2 2.9-8.2 8.2v23.9h-5.6z"/><path class="a" d="m302.3 74.8c-1.9 8.3-8.2 13.1-16.5 13.1-10.1 0-17.9-7.9-17.9-19.4 0-11.6 7.8-19.5 17.9-19.5 8.3 0 14.6 4.9 16.5 12.7h-5.7c-1.5-4.8-5.5-7.4-10.8-7.4-6.8 0-12.3 5.6-12.3 14.2 0 8.6 5.5 14.2 12.3 14.2 5.3 0 9.3-2.6 10.8-7.9z"/><path fill-rule="evenodd" class="a" d="m332.2 82.7h-0.4c-0.7 0.9-1.6 1.8-2.7 2.6-1.9 1.4-4.7 2.6-8.9 2.6-7.9 0-13.1-4.8-13.1-11.6 0-7.2 4.5-12 15-12h10.1v-1.1c0-5.7-3.3-8.9-9-8.9-5.7 0-9 2.9-9.4 6.3h-5.6c0.4-6 5.6-11.6 15-11.6 9 0 14.6 5.2 14.6 14.2v23.9h-4.9zm0-13h-10.1c-6.8 0-9.3 3-9.3 6.7 0 3.8 2.6 6.3 7.4 6.3 7.5 0 12-4.4 12-11.5z"/><path fill-rule="evenodd" class="a" d="m390.5 81.9h-0.4c-3 3.8-6.7 6-12 6-9.8 0-17.2-7.9-17.2-19.4 0-11.6 7.4-19.5 17.2-19.5 5.3 0 9 2.2 12 6h0.4v-20.2h5.6v52.3h-4.9zm0-13.4c0-8.6-5.6-14.2-11.9-14.2-6.4 0-12 5.6-12 14.2 0 8.6 5.6 14.2 12 14.2 6.3 0 11.9-5.6 11.9-14.2z"/><path fill-rule="evenodd" class="a" d="m437.6 76.7c-2.7 7.2-8.3 11.2-16.1 11.2-10.1 0-18-7.9-18-19.4 0-11.6 7.9-19.5 18-19.5 9.8 0 17.2 7.5 17.2 18 0 1.5-0.2 2.5-0.2 3.2l-0.2 0.9h-29.1c0.8 7.1 6 11.6 12.3 11.6 4.5 0 8.2-2.2 10.1-6zm-4.5-10.9c-0.4-6.8-5.2-11.5-11.6-11.5-6.8 0-11.5 4.7-12.3 11.5z"/></svg>