<svg xmlns="http://www.w3.org/2000/svg" viewBox="0 0 29.25 29.25"><defs><style>.cls-1{fill:#fff;}.cls-2{fill:#019df4;}</style></defs><g id="Capa_2" data-name="Capa 2"><g id="Capa_1-2" data-name="Capa 1"><circle class="cls-1" cx="14.62" cy="14.63" r="14.62"/><path class="cls-2" d="M20.21,6.49H9A2.83,2.83,0,0,0,6.2,9.3v6.86A2.71,2.71,0,0,0,8.89,19h.95v2.34c0,.68-.15,1.32.49,1.42s1.15-.57,1.54-1,1.46-1.57,2.48-2.73h5.86a2.84,2.84,0,0,0,2.84-2.83V9.32A2.84,2.84,0,0,0,20.21,6.49ZM10.08,14.15a1,1,0,1,1,1-1A1,1,0,0,1,10.08,14.15Zm4.07,0a1,1,0,1,1,0-2,1,1,0,0,1,0,2Zm4.06,0a1,1,0,1,1,1-1A1,1,0,0,1,18.21,14.15Z"/></g></g></svg>