<svg xmlns="http://www.w3.org/2000/svg" viewBox="0 0 467.95 181.8"><defs><style>.cls-1{fill:#ff550f;}</style></defs><g id="Capa_2" data-name="Capa 2"><g id="Layer_1" data-name="Layer 1"><polygon class="cls-1" points="72.72 147.09 31.07 147.09 0 22.15 41.65 22.15 72.72 147.09"/><polygon class="cls-1" points="74.7 145.77 55.53 70.41 76.36 0 116.02 0 74.7 145.77"/><polygon class="cls-1" points="118 1.98 96.19 78.01 110.07 131.56 152.38 131.56 118 1.98"/><polygon class="cls-1" points="135.85 62.14 139.82 50.24 180.15 50.24 153.7 127.59 135.85 62.14"/><polygon class="cls-1" points="196.01 131.89 162.3 131.89 192.04 50.24 225.76 50.24 196.01 131.89"/><polygon class="cls-1" points="227.08 46.94 193.37 46.94 199.32 31.07 233.03 31.07 227.08 46.94"/><polygon class="cls-1" points="252.2 117.67 235.68 50.57 208.9 131.89 246.58 131.89 252.2 117.67"/><polygon class="cls-1" points="293.85 117.01 270.05 179.81 237 50.24 276 50.24 293.85 117.01"/><polygon class="cls-1" points="310.38 181.8 271.37 181.8 307.73 84.62 346.74 84.62 310.38 181.8"/><polygon class="cls-1" points="310.38 181.8 271.37 181.8 307.73 84.62 346.74 84.62 310.38 181.8"/><path class="cls-1" d="M412.74,50A55.77,55.77,0,1,0,468,106.29,55.77,55.77,0,0,0,412.74,50Zm7.73,78-15.44.11-.11-15-15.44.11-.1-14.6,15.44-.11-.1-14.61,15.44-.11.1,14.61,14.6-.1.11,14.6-14.61.1Z"/><path class="cls-1" d="M238.75,148.51a2.78,2.78,0,0,0-.24-1.6c-.43-.71-1.34-1.07-2.73-1.07a4.85,4.85,0,0,0-2.55.53,2,2,0,0,0-1,1.25,1.09,1.09,0,0,0,.5,1.32,27.73,27.73,0,0,0,5.16,1.45,8,8,0,0,1,4.23,2.23,4.36,4.36,0,0,1,.75,3.78,8,8,0,0,1-3.26,4.89,12.32,12.32,0,0,1-7.27,1.89c-3.16,0-5.35-.68-6.58-2a5.46,5.46,0,0,1-1.19-5.09h5.33a2.91,2.91,0,0,0,.32,2c.49.7,1.61,1.06,3.38,1.06a6,6,0,0,0,2.55-.47,1.93,1.93,0,0,0,1.22-1.38,1.19,1.19,0,0,0-.46-1.34,24.6,24.6,0,0,0-5.14-1.59,8.87,8.87,0,0,1-4.36-2.12,3.88,3.88,0,0,1-.62-3.62,8.05,8.05,0,0,1,3.2-4.78,10.45,10.45,0,0,1,6.57-2,9.69,9.69,0,0,1,5.81,1.5q2.06,1.5,1.62,5.19Z"/><path class="cls-1" d="M214.29,156.94c-.17.82-.18,1.33,0,1.54s.79.3,1.85.3h.51l.55,0-.85,3.93-2.51.09h-.61c-2.15,0-3.55-.43-4.21-1.3a3.46,3.46,0,0,1-.29-2.79l2.64-12.37h-2.81l.8-3.75h2.8l1.2-5.6h5.2l-1.2,5.6h3.26l-.78,3.75h-3.27Z"/><path class="cls-1" d="M201.52,142l-1.15,5.38c-.32,0-.61-.06-.87-.07s-.47,0-.62,0a5.49,5.49,0,0,0-4.71,2.06,9.85,9.85,0,0,0-1.37,3.58l-2,9.61h-5.29l4.25-20.1h5l-.73,3.5a15.61,15.61,0,0,1,2.68-2.75,7,7,0,0,1,4.12-1.23h.25Z"/><path class="cls-1" d="M178.26,144.93c-1.25-2.12-3.6-3.19-7-3.19a11.48,11.48,0,0,0-8.41,3.19,14.7,14.7,0,0,0-4.15,7.55,10.19,10.19,0,0,0,.93,7.57q1.88,3.13,7,3.14a11.55,11.55,0,0,0,8.41-3.14,14.63,14.63,0,0,0,4.15-7.57A10.33,10.33,0,0,0,178.26,144.93Zm-4.58,7.55a9.42,9.42,0,0,1-2.23,4.67,5.2,5.2,0,0,1-3.89,1.63,3.31,3.31,0,0,1-3.2-1.63,6.85,6.85,0,0,1-.25-4.67,9.3,9.3,0,0,1,2.23-4.66,5.2,5.2,0,0,1,3.89-1.63,3.31,3.31,0,0,1,3.2,1.63A6.81,6.81,0,0,1,173.68,152.48Z"/><path class="cls-1" d="M150.62,144.55a6.31,6.31,0,0,0-5.42-2.6,7.91,7.91,0,0,0-4.44,1.34,11.45,11.45,0,0,0-2.25,2.07l.63-3h-5l-6,28h5.2l2.23-10.48a5.65,5.65,0,0,0,1.3,1.93,5.33,5.33,0,0,0,3.72,1.2,9.58,9.58,0,0,0,6.74-2.78,15.07,15.07,0,0,0,4.11-8.1C152.15,148.83,151.87,146.28,150.62,144.55ZM146,152.44a9.66,9.66,0,0,1-2.1,4.51,4.76,4.76,0,0,1-3.71,1.7,3.56,3.56,0,0,1-2.45-.82c-1-1-1.3-2.59-.81-4.93a12.58,12.58,0,0,1,1.32-3.65,5,5,0,0,1,4.5-2.71,2.9,2.9,0,0,1,3.06,1.79A7.13,7.13,0,0,1,146,152.44Z"/><path class="cls-1" d="M118.55,148.51a2.7,2.7,0,0,0-.24-1.6c-.43-.71-1.34-1.07-2.73-1.07a4.9,4.9,0,0,0-2.55.53,2,2,0,0,0-1,1.25,1.1,1.1,0,0,0,.5,1.32,27.73,27.73,0,0,0,5.16,1.45,8,8,0,0,1,4.23,2.23,4.3,4.3,0,0,1,.75,3.78,7.94,7.94,0,0,1-3.26,4.89,12.32,12.32,0,0,1-7.27,1.89c-3.15,0-5.35-.68-6.58-2a5.49,5.49,0,0,1-1.19-5.09h5.34a2.92,2.92,0,0,0,.31,2c.5.7,1.62,1.06,3.37,1.06a6,6,0,0,0,2.57-.47,1.91,1.91,0,0,0,1.21-1.38,1.18,1.18,0,0,0-.45-1.34,25.29,25.29,0,0,0-5.15-1.59,8.83,8.83,0,0,1-4.35-2.12,3.88,3.88,0,0,1-.63-3.62,8.14,8.14,0,0,1,3.2-4.78,10.45,10.45,0,0,1,6.57-2,9.74,9.74,0,0,1,5.82,1.5q2,1.5,1.62,5.19Z"/></g></g></svg>